<svg width="72" height="12" viewBox="0 0 72 12" fill="none" xmlns="http://www.w3.org/2000/svg">
<path d="M61.5738 7.07785C61.5738 6.45387 61.6778 5.91573 61.8858 5.46344C62.0938 5.00784 62.3727 4.63312 62.7227 4.33929C63.076 4.04216 63.4672 3.82261 63.8964 3.68065C64.3289 3.53869 64.7679 3.46771 65.2136 3.46771C65.448 3.46771 65.6791 3.48421 65.9069 3.51723C66.138 3.54694 66.3592 3.59481 66.5705 3.66084V1.5116H69.4527V9.84611H67.6155L66.9073 8.82101C66.597 9.23039 66.2321 9.53248 65.8129 9.72726C65.3969 9.92205 64.9677 10.0194 64.5253 10.0194C64.1522 10.0194 63.7891 9.95341 63.4358 9.82135C63.0859 9.6893 62.7706 9.49616 62.4899 9.24195C62.2093 8.98774 61.9865 8.67905 61.8214 8.31589C61.6563 7.95273 61.5738 7.54005 61.5738 7.07785ZM65.1344 7.96924C65.3424 7.96924 65.5372 7.93127 65.7188 7.85534C65.9003 7.7794 66.0638 7.69027 66.209 7.58792C66.3543 7.48558 66.4748 7.39644 66.5705 7.3205V5.55753C66.4583 5.4882 66.3312 5.45353 66.1892 5.45353C66.0076 5.45353 65.8261 5.50966 65.6445 5.62191C65.4629 5.73085 65.2962 5.87777 65.1443 6.06265C64.9924 6.24423 64.8703 6.44232 64.7779 6.65691C64.6887 6.87151 64.6441 7.0828 64.6441 7.29079C64.6441 7.44596 64.6805 7.59782 64.7531 7.74639C64.829 7.89496 64.9561 7.96924 65.1344 7.96924Z" fill="#8FAB62"/>
<path d="M57.0767 6.87477C57.0767 6.33663 56.9974 5.95036 56.839 5.71596C56.6838 5.48155 56.4725 5.36435 56.2051 5.36435C56.0565 5.36435 55.9525 5.42708 55.8931 5.55254C55.837 5.67799 55.8089 5.82821 55.8089 6.00318V9.84608H52.8673V3.69052H54.4916L55.1998 4.65124C55.4738 4.27817 55.8436 3.986 56.3091 3.7747C56.7746 3.56341 57.2566 3.45776 57.7551 3.45776C58.1711 3.45776 58.5524 3.54525 58.8991 3.72023C59.2457 3.8919 59.5214 4.14116 59.7261 4.46801C59.9341 4.79485 60.0381 5.18772 60.0381 5.64663V9.84608H57.0767V6.87477Z" fill="#8FAB62"/>
<path d="M43.5278 7.04809C43.5278 6.50666 43.6186 6.01639 43.8001 5.5773C43.985 5.1382 44.2359 4.76019 44.5529 4.44325C44.8698 4.12631 45.2297 3.88365 45.6324 3.71528C46.0352 3.5436 46.4562 3.45776 46.8953 3.45776C47.2485 3.45776 47.5935 3.54525 47.9303 3.72023C48.2703 3.8919 48.541 4.13456 48.7424 4.4482L49.4506 3.69052H51.0749V9.84608H49.4506L48.7424 8.82097C48.4882 9.19734 48.1465 9.49282 47.7173 9.70741C47.2881 9.92201 46.8457 10.0293 46.3901 10.0293C45.8883 10.0293 45.4195 9.92201 44.9837 9.70741C44.5479 9.48952 44.1963 9.16102 43.9289 8.72193C43.6615 8.27954 43.5278 7.72159 43.5278 7.04809ZM46.4793 7.29075C46.4793 7.45252 46.5172 7.60604 46.5932 7.7513C46.6691 7.89657 46.7929 7.9692 46.9646 7.9692C47.1297 7.9692 47.3409 7.91968 47.5985 7.82063C47.856 7.71829 48.125 7.54826 48.4057 7.31056V5.55749C48.2901 5.48816 48.1597 5.45349 48.0144 5.45349C47.8263 5.45349 47.6414 5.51127 47.4598 5.62682C47.2782 5.73907 47.1132 5.88763 46.9646 6.07251C46.8193 6.25409 46.7021 6.45218 46.613 6.66678C46.5238 6.88137 46.4793 7.08936 46.4793 7.29075Z" fill="#8FAB62"/>
<path d="M36.6059 1.93726H39.6862V7.46389H42.3455V9.84589H36.6059V1.93726Z" fill="#8FAB62"/>
<path d="M31.0685 6.01307C30.8638 6.01307 30.6509 6.06589 30.4297 6.17154C30.2085 6.27719 30.0219 6.40429 29.8701 6.55286C29.7215 6.70142 29.6472 6.84174 29.6472 6.97379V9.84606H26.666V3.6905H29.6472V4.34914C29.8156 4.09493 30.0236 3.89189 30.2712 3.74002C30.5221 3.58815 30.7879 3.49736 31.0685 3.46765V6.01307Z" fill="#8FAB62"/>
<path d="M25.18 6.01307C24.9753 6.01307 24.7623 6.06589 24.5411 6.17154C24.3199 6.27719 24.1334 6.40429 23.9815 6.55286C23.833 6.70142 23.7587 6.84174 23.7587 6.97379V9.84606H20.7775V3.6905H23.7587V4.34914C23.9271 4.09493 24.135 3.89189 24.3827 3.74002C24.6336 3.58815 24.8993 3.49736 25.18 3.46765V6.01307Z" fill="#8FAB62"/>
<path d="M14.7716 6.55799C14.7716 6.98057 14.8079 7.31072 14.8805 7.54842C14.9565 7.78282 15.0539 7.9479 15.1727 8.04364C15.2949 8.13608 15.4236 8.1823 15.559 8.1823C15.7571 8.1823 15.8858 8.12287 15.9453 8.00402C16.008 7.88187 16.0393 7.72505 16.0393 7.53357V3.69067H18.9809V9.84623H17.3566L16.6485 8.88056C16.3744 9.25692 16.003 9.55075 15.5342 9.76205C15.0687 9.97334 14.5867 10.079 14.0882 10.079C13.6755 10.079 13.2958 9.99315 12.9492 9.82147C12.6025 9.6465 12.3252 9.39558 12.1172 9.06874C11.9125 8.7419 11.8102 8.34902 11.8102 7.89012V3.69067H14.7716V6.55799Z" fill="#8FAB62"/>
<path d="M6.51261 1.71423C7.43371 1.71423 8.17984 1.82318 8.75099 2.04108C9.32544 2.25897 9.74638 2.60398 10.0138 3.07608C10.2812 3.54819 10.4149 4.16886 10.4149 4.9381C10.4149 5.45313 10.3175 5.92524 10.1227 6.35443C9.93126 6.78031 9.66549 7.14842 9.32544 7.45876C8.98539 7.7691 8.58922 8.0101 8.13692 8.18178C7.68792 8.35015 7.20591 8.43434 6.69088 8.43434C6.55883 8.43434 6.42182 8.43104 6.27985 8.42444C6.14119 8.41783 5.98437 8.41453 5.8094 8.41453V9.84571H2.57562V1.95689C3.34486 1.88096 4.05467 1.82153 4.70506 1.77861C5.35545 1.73569 5.95796 1.71423 6.51261 1.71423ZM7.03754 3.76939C6.92199 3.76939 6.79158 3.7991 6.64631 3.85853C6.50435 3.91795 6.36734 3.98728 6.23528 4.06652C6.10653 4.14245 5.99923 4.21013 5.91339 4.26956C5.83086 4.32898 5.78959 4.3587 5.78959 4.3587V6.22567L6.36899 5.94339C6.70244 5.77832 6.98967 5.57528 7.23067 5.33428C7.47498 5.08997 7.59713 4.77468 7.59713 4.38841C7.59713 4.22334 7.54761 4.07972 7.44857 3.95757C7.35283 3.83212 7.21581 3.76939 7.03754 3.76939Z" fill="#8FAB62"/>
</svg>
