<svg viewBox="0 0 72 12" fill="none" xmlns="http://www.w3.org/2000/svg">
<path d="M61.5737 7.07791C61.5737 6.45393 61.6777 5.9158 61.8857 5.4635C62.0937 5.0079 62.3727 4.63318 62.7226 4.33935C63.0759 4.04222 63.4671 3.82267 63.8963 3.68071C64.3288 3.53875 64.7679 3.46777 65.2136 3.46777C65.448 3.46777 65.6791 3.48428 65.9069 3.51729C66.138 3.547 66.3592 3.59487 66.5705 3.6609V1.51166H69.4526V9.84618H67.6154L66.9072 8.82107C66.5969 9.23045 66.2321 9.53254 65.8128 9.72732C65.3968 9.92211 64.9676 10.0195 64.5252 10.0195C64.1522 10.0195 63.789 9.95347 63.4357 9.82141C63.0858 9.68936 62.7705 9.49622 62.4899 9.24201C62.2093 8.9878 61.9864 8.67911 61.8213 8.31595C61.6563 7.95279 61.5737 7.54011 61.5737 7.07791ZM65.1343 7.9693C65.3423 7.9693 65.5371 7.93133 65.7187 7.8554C65.9003 7.77947 66.0637 7.69033 66.209 7.58798C66.3542 7.48564 66.4747 7.3965 66.5705 7.32056V5.55759C66.4582 5.48826 66.3311 5.45359 66.1892 5.45359C66.0076 5.45359 65.826 5.50972 65.6444 5.62197C65.4628 5.73091 65.2961 5.87783 65.1443 6.06271C64.9924 6.24429 64.8702 6.44238 64.7778 6.65697C64.6887 6.87157 64.6441 7.08286 64.6441 7.29085C64.6441 7.44602 64.6804 7.59789 64.753 7.74645C64.829 7.89502 64.9561 7.9693 65.1343 7.9693Z" fill="#CEEB9E"/>
<path d="M57.0767 6.87483C57.0767 6.33669 56.9974 5.95042 56.839 5.71602C56.6838 5.48162 56.4725 5.36441 56.2051 5.36441C56.0565 5.36441 55.9525 5.42714 55.8931 5.5526C55.837 5.67805 55.8089 5.82827 55.8089 6.00325V9.84614H52.8673V3.69058H54.4916L55.1998 4.6513C55.4738 4.27824 55.8436 3.98606 56.3091 3.77476C56.7746 3.56347 57.2566 3.45782 57.7551 3.45782C58.1711 3.45782 58.5524 3.54531 58.8991 3.72029C59.2457 3.89197 59.5214 4.14123 59.7261 4.46807C59.9341 4.79491 60.0381 5.18779 60.0381 5.64669V9.84614H57.0767V6.87483Z" fill="#CEEB9E"/>
<path d="M43.5277 7.04816C43.5277 6.50672 43.6185 6.01645 43.8001 5.57736C43.985 5.13826 44.2359 4.76025 44.5528 4.44331C44.8698 4.12637 45.2296 3.88371 45.6324 3.71534C46.0352 3.54366 46.4561 3.45782 46.8952 3.45782C47.2484 3.45782 47.5935 3.54531 47.9302 3.72029C48.2702 3.89197 48.541 4.13462 48.7424 4.44826L49.4505 3.69058H51.0748V9.84614H49.4505L48.7424 8.82104C48.4881 9.1974 48.1464 9.49288 47.7173 9.70748C47.2881 9.92207 46.8457 10.0294 46.3901 10.0294C45.8883 10.0294 45.4194 9.92207 44.9836 9.70748C44.5479 9.48958 44.1963 9.16109 43.9288 8.72199C43.6614 8.2796 43.5277 7.72165 43.5277 7.04816ZM46.4792 7.29081C46.4792 7.45258 46.5172 7.6061 46.5931 7.75136C46.669 7.89663 46.7928 7.96926 46.9645 7.96926C47.1296 7.96926 47.3409 7.91974 47.5984 7.8207C47.8559 7.71835 48.125 7.54833 48.4056 7.31062V5.55755C48.2901 5.48822 48.1597 5.45355 48.0144 5.45355C47.8262 5.45355 47.6413 5.51133 47.4597 5.62688C47.2782 5.73913 47.1131 5.88769 46.9645 6.07258C46.8193 6.25416 46.7021 6.45224 46.6129 6.66684C46.5238 6.88143 46.4792 7.08942 46.4792 7.29081Z" fill="#CEEB9E"/>
<path d="M36.6058 1.93732H39.6861V7.46395H42.3454V9.84595H36.6058V1.93732Z" fill="#CEEB9E"/>
<path d="M31.0685 6.01307C30.8638 6.01307 30.6509 6.06589 30.4297 6.17154C30.2085 6.27719 30.0219 6.40429 29.8701 6.55286C29.7215 6.70142 29.6472 6.84174 29.6472 6.97379V9.84606H26.666V3.6905H29.6472V4.34914C29.8156 4.09493 30.0236 3.89189 30.2712 3.74002C30.5221 3.58815 30.7879 3.49736 31.0685 3.46765V6.01307Z" fill="#CEEB9E"/>
<path d="M25.18 6.01307C24.9753 6.01307 24.7623 6.06589 24.5411 6.17154C24.3199 6.27719 24.1334 6.40429 23.9815 6.55286C23.833 6.70142 23.7587 6.84174 23.7587 6.97379V9.84606H20.7775V3.6905H23.7587V4.34914C23.9271 4.09493 24.135 3.89189 24.3827 3.74002C24.6336 3.58815 24.8993 3.49736 25.18 3.46765V6.01307Z" fill="#CEEB9E"/>
<path d="M14.7716 6.55805C14.7716 6.98063 14.8079 7.31078 14.8805 7.54848C14.9565 7.78289 15.0539 7.94796 15.1727 8.0437C15.2949 8.13614 15.4236 8.18236 15.559 8.18236C15.7571 8.18236 15.8858 8.12294 15.9453 8.00408C16.008 7.88193 16.0393 7.72511 16.0393 7.53363V3.69073H18.9809V9.84629H17.3566L16.6485 8.88062C16.3744 9.25698 16.003 9.55081 15.5342 9.76211C15.0687 9.9734 14.5867 10.079 14.0882 10.079C13.6755 10.079 13.2958 9.99321 12.9492 9.82153C12.6025 9.64656 12.3252 9.39565 12.1172 9.0688C11.9125 8.74196 11.8102 8.34908 11.8102 7.89018V3.69073H14.7716V6.55805Z" fill="#CEEB9E"/>
<path d="M6.51254 1.71423C7.43365 1.71423 8.17978 1.82318 8.75093 2.04108C9.32538 2.25897 9.74632 2.60398 10.0137 3.07608C10.2812 3.54819 10.4149 4.16886 10.4149 4.9381C10.4149 5.45313 10.3175 5.92524 10.1227 6.35442C9.9312 6.78031 9.66543 7.14842 9.32538 7.45876C8.98533 7.7691 8.58916 8.0101 8.13686 8.18178C7.68786 8.35015 7.20585 8.43434 6.69082 8.43434C6.55876 8.43434 6.42175 8.43104 6.27979 8.42444C6.14113 8.41783 5.98431 8.41453 5.80933 8.41453V9.84571H2.57556V1.95689C3.3448 1.88096 4.05461 1.82153 4.705 1.77861C5.35539 1.73569 5.9579 1.71423 6.51254 1.71423ZM7.03748 3.76939C6.92192 3.76939 6.79152 3.7991 6.64625 3.85853C6.50429 3.91795 6.36728 3.98728 6.23522 4.06652C6.10647 4.14245 5.99917 4.21013 5.91333 4.26956C5.83079 4.32898 5.78953 4.3587 5.78953 4.3587V6.22567L6.36893 5.94339C6.70238 5.77832 6.9896 5.57528 7.23061 5.33428C7.47492 5.08997 7.59707 4.77468 7.59707 4.38841C7.59707 4.22334 7.54755 4.07972 7.44851 3.95757C7.35276 3.83212 7.21575 3.76939 7.03748 3.76939Z" fill="#CEEB9E"/>
</svg>
