<svg width="40" height="40" viewBox="0 0 40 40" fill="none" xmlns="http://www.w3.org/2000/svg">
<path d="M10 24.0001H13.8889L19.1834 28.3319C19.2727 28.405 19.3846 28.4449 19.5 28.4449C19.7761 28.4449 20 28.2211 20 27.9449V12.0552C20 11.9398 19.9601 11.8279 19.887 11.7386C19.7121 11.5248 19.3971 11.4933 19.1834 11.6682L13.8889 16.0001H10C9.44772 16.0001 9 16.4478 9 17.0001V23.0001C9 23.5524 9.44772 24.0001 10 24.0001ZM31 20C31 23.292 29.5539 26.2463 27.2622 28.2622L25.8445 26.8444C27.7758 25.1937 29 22.7398 29 20C29 17.2602 27.7758 14.8063 25.8445 13.1556L27.2622 11.7378C29.5539 13.7537 31 16.708 31 20ZM26 20C26 18.0883 25.106 16.3855 23.7133 15.2867L22.2842 16.7158C23.3213 17.4385 24 18.64 24 20C24 21.36 23.3213 22.5614 22.2842 23.2841L23.7133 24.7132C25.106 23.6145 26 21.9116 26 20Z" fill="white"/>
</svg>
