<svg viewBox="0 0 24 24" fill="none" xmlns="http://www.w3.org/2000/svg">
<path d="M3.95801 7.95801C3.34566 9.17326 3.00005 10.5457 3 12C3.00016 16.9704 7.02954 21 12 21C13.4542 21 14.8252 20.6525 16.04 20.04L17.5156 21.5156C15.8937 22.4575 14.01 23 12 23C5.92497 23 1.00016 18.075 1 12C1.00005 9.99 1.54142 8.10546 2.4834 6.4834L3.95801 7.95801ZM12 1C18.0751 1 23 5.92487 23 12C23 14.9031 21.8725 17.5427 20.0361 19.5078L20.0742 19.5459L19.2764 20.25L18.5723 20.8711L3.12891 5.42773L3.75 4.72363L4.4541 3.92578L4.49121 3.96289C6.45629 2.12652 9.09684 1 12 1ZM12 3C9.64913 3 7.50917 3.90002 5.90527 5.37695L12 11.4717V7C12 6.9879 12.0006 6.97586 12.001 6.96387C12.0015 6.94893 12.0027 6.93397 12.0039 6.91895C12.0056 6.89824 12.0078 6.87775 12.0107 6.85742C12.0118 6.85029 12.0125 6.84308 12.0137 6.83594C12.0146 6.83008 12.0155 6.82418 12.0166 6.81836C12.0198 6.80088 12.0242 6.78375 12.0283 6.7666C12.0328 6.74783 12.0375 6.72922 12.043 6.71094C12.0486 6.69214 12.0548 6.67359 12.0615 6.65527C12.0645 6.64714 12.0671 6.63888 12.0703 6.63086C12.0791 6.60885 12.0894 6.58762 12.0996 6.56641C12.1056 6.55404 12.1108 6.54135 12.1172 6.5293C12.122 6.52028 12.1277 6.51178 12.1328 6.50293C12.1421 6.48681 12.1511 6.47058 12.1611 6.45508C12.1711 6.43978 12.1816 6.42486 12.1924 6.41016C12.2016 6.39758 12.211 6.38514 12.2207 6.37305C12.231 6.36028 12.242 6.34818 12.2529 6.33594C12.262 6.32577 12.2708 6.31544 12.2803 6.30566C12.2947 6.29075 12.3099 6.2767 12.3252 6.2627C12.3339 6.25476 12.3426 6.24688 12.3516 6.23926C12.3676 6.22556 12.3845 6.21287 12.4014 6.2002C12.409 6.1945 12.4161 6.18809 12.4238 6.18262C12.4413 6.17028 12.4593 6.15868 12.4775 6.14746C12.4881 6.14098 12.499 6.135 12.5098 6.12891C12.5585 6.1014 12.6097 6.07771 12.6631 6.05859C12.6687 6.05658 12.674 6.05368 12.6797 6.05176C12.6994 6.04509 12.7199 6.04061 12.7402 6.03516C12.7552 6.03113 12.77 6.02678 12.7852 6.02344C12.7897 6.02244 12.7943 6.02144 12.7988 6.02051L12.8633 6.00879C12.8694 6.00794 12.8757 6.00757 12.8818 6.00684C12.8993 6.00478 12.9169 6.00407 12.9346 6.00293C12.9482 6.00205 12.9618 6.0013 12.9756 6.00098C12.9837 6.00078 12.9918 6 13 6C13.0118 6 13.0235 6.00057 13.0352 6.00098C13.0491 6.00148 13.0631 6.00183 13.0771 6.00293C13.0989 6.00459 13.1203 6.00772 13.1416 6.01074C13.1491 6.01181 13.1566 6.01243 13.1641 6.01367L16.1641 6.51367C16.7087 6.60445 17.0769 7.11941 16.9863 7.66406C16.8955 8.20871 16.3806 8.57693 15.8359 8.48633L14 8.17969V13.4717L18.6221 18.0938C20.099 16.4899 21 14.3508 21 12C21 7.02943 16.9706 3 12 3ZM12.8506 16.8506C12.2807 17.2659 11.5619 17.5 10.8398 17.5H9.16016C7.57525 17.5 6 16.3792 6 14.667V14.333C6 13.1314 6.77665 12.2232 7.78711 11.7871L12.8506 16.8506Z" fill="white"/>
</svg>
