<svg viewBox="0 0 40 40" fill="none" xmlns="http://www.w3.org/2000/svg">
<path d="M11.2545 25.6001H5.81003C5.03684 25.6001 4.41003 24.9734 4.41003 24.2001V15.8001C4.41003 15.0269 5.03684 14.4001 5.81003 14.4001H11.2545L18.6668 8.33549C18.966 8.09069 19.407 8.13479 19.6518 8.434C19.7542 8.55906 19.81 8.71568 19.81 8.87727V31.1229C19.81 31.5095 19.4966 31.8229 19.11 31.8229C18.9485 31.8229 18.7918 31.767 18.6668 31.6647L11.2545 25.6001ZM31.5899 20.0001L36.5396 24.9498L34.5597 26.9297L29.61 21.98L24.6603 26.9297L22.6805 24.9498L27.6302 20.0001L22.6805 15.0504L24.6603 13.0704L29.61 18.0203L34.5597 13.0704L36.5396 15.0504L31.5899 20.0001Z" fill="white"/>
</svg>
