<svg viewBox="0 0 40 40" fill="none" xmlns="http://www.w3.org/2000/svg">
<path d="M13.8889 24.0001H10C9.44772 24.0001 9 23.5524 9 23.0001V17.0001C9 16.4478 9.44772 16.0001 10 16.0001H13.8889L19.1834 11.6682C19.3971 11.4933 19.7121 11.5248 19.887 11.7386C19.9601 11.8279 20 11.9398 20 12.0552V27.9449C20 28.2211 19.7761 28.4449 19.5 28.4449C19.3846 28.4449 19.2727 28.405 19.1834 28.3319L13.8889 24.0001ZM28.4142 20.0001L31.9497 23.5356L30.5355 24.9498L27 21.4143L23.4645 24.9498L22.0503 23.5356L25.5858 20.0001L22.0503 16.4645L23.4645 15.0503L27 18.5859L30.5355 15.0503L31.9497 16.4645L28.4142 20.0001Z" fill="white"/>
</svg>
