<svg viewBox="0 0 40 40" fill="none" xmlns="http://www.w3.org/2000/svg">
<path d="M5.99998 25.6001H11.4444L18.8567 31.6647C18.9818 31.767 19.1384 31.8229 19.3 31.8229C19.6865 31.8229 20 31.5095 20 31.1229V8.87727C20 8.71568 19.9441 8.55906 19.8418 8.434C19.5969 8.13479 19.1559 8.09069 18.8567 8.33549L11.4444 14.4001H5.99998C5.22678 14.4001 4.59998 15.0269 4.59998 15.8001V24.2001C4.59998 24.9734 5.22678 25.6001 5.99998 25.6001ZM35.4 20C35.4 24.6088 33.3754 28.7448 30.1671 31.5671L28.1823 29.5822C30.8861 27.2712 32.6 23.8357 32.6 20C32.6 16.1642 30.8861 12.7288 28.1823 10.4178L30.1671 8.43291C33.3754 11.2552 35.4 15.3911 35.4 20ZM28.4 20C28.4 17.3236 27.1484 14.9397 25.1986 13.4014L23.1979 15.4022C24.6498 16.414 25.6 18.096 25.6 20C25.6 21.904 24.6498 23.586 23.1979 24.5977L25.1986 26.5985C27.1484 25.0603 28.4 22.6762 28.4 20Z" fill="white"/>
</svg>
